<?xml version="1.0" encoding="utf-8"?>
<!-- Generator: Adobe Illustrator 23.0.5, SVG Export Plug-In . SVG Version: 6.00 Build 0)  -->
<svg version="1.1" id="Layer_1" xmlns="http://www.w3.org/2000/svg" xmlns:xlink="http://www.w3.org/1999/xlink" x="0px" y="0px"
	 width="127.05px" height="127.05px" viewBox="0 0 127.05 127.05" enable-background="new 0 0 127.05 127.05" xml:space="preserve">
<g>
	<path id="Cuerpo" display="none" fill="#B3B8BA" d="M126.56,55.62l-12.11,1.52l0,0.01c-0.18-1.42-0.41-2.82-0.7-4.2
		c-0.7-3.34-1.72-6.55-3.04-9.62c-0.24-0.57-0.51-1.13-0.77-1.69l0,0l11.04-5.2c-1.35-2.85-2.89-5.59-4.63-8.19
		c-2.32-3.47-4.98-6.71-7.92-9.65c-3.1-3.1-6.53-5.88-10.22-8.29c-0.89-0.58-1.8-1.14-2.72-1.68l-6.15,10.55l0,0
		c-2.16-1.26-4.41-2.37-6.75-3.31c-2.66-1.07-5.44-1.91-8.3-2.52l2.57-11.94c-0.31-0.07-0.62-0.13-0.94-0.2
		C71.93,0.42,67.78,0,63.53,0c-4.49,0-8.87,0.47-13.1,1.35c-4.13,0.87-8.11,2.13-11.9,3.76c-3.61,1.54-7.05,3.42-10.27,5.58
		c-1.52,1.02-2.98,2.11-4.41,3.25l7.62,9.53c-1.48,1.18-2.9,2.44-4.23,3.77c-2.51,2.51-4.75,5.28-6.7,8.26l0.07-0.1L10.4,28.7
		l-0.09,0.13C8.04,32.3,6.11,36,4.54,39.9c-1.44,3.59-2.56,7.33-3.33,11.21C0.42,55.12,0,59.28,0,63.53c0,2.68,0.17,5.31,0.49,7.9
		l12.11-1.52l0-0.01c0.18,1.42,0.41,2.82,0.7,4.21c0.7,3.34,1.72,6.55,3.04,9.62c0.24,0.57,0.5,1.13,0.77,1.68L6.06,90.61
		c1.35,2.85,2.89,5.59,4.63,8.19c2.32,3.47,4.98,6.71,7.92,9.65c3.1,3.1,6.53,5.88,10.22,8.29c0.89,0.58,1.8,1.14,2.72,1.68
		l6.15-10.55l0,0c2.16,1.26,4.41,2.37,6.75,3.3c2.9,1.16,5.92,2.07,9.05,2.69c-0.25-0.05-0.5-0.12-0.76-0.17l-2.57,11.94
		c0.31,0.07,0.62,0.14,0.94,0.2c4.02,0.8,8.17,1.22,12.42,1.22c4.49,0,8.87-0.47,13.09-1.35c4.13-0.87,8.11-2.13,11.9-3.76
		c3.61-1.54,7.05-3.42,10.27-5.58c1.52-1.02,2.98-2.11,4.41-3.25l-7.62-9.53c1.48-1.18,2.9-2.44,4.23-3.77
		c2.48-2.48,4.7-5.21,6.63-8.15l10.21,6.69l0.09-0.13c2.27-3.47,4.21-7.18,5.77-11.07c1.44-3.58,2.56-7.33,3.33-11.21
		c0.8-4.02,1.22-8.17,1.22-12.42C127.05,60.85,126.88,58.21,126.56,55.62z M109.26,40.24c-0.09-0.18-0.18-0.35-0.27-0.53
		C109.08,39.89,109.17,40.07,109.26,40.24z M107.34,36.8c-0.37-0.6-0.74-1.19-1.13-1.77C106.6,35.61,106.98,36.2,107.34,36.8z
		 M108.35,38.54c-0.16-0.29-0.33-0.59-0.5-0.88C108.02,37.96,108.19,38.25,108.35,38.54z M35.03,20.84
		c-0.62,0.41-1.23,0.85-1.83,1.29C33.8,21.69,34.41,21.25,35.03,20.84z M12.42,68.2l0.02,0.24L12.42,68.2z M12.23,65.04
		c0,0.13,0.01,0.25,0.02,0.38C12.24,65.29,12.23,65.17,12.23,65.04z M12.3,66.6c0.01,0.12,0.02,0.23,0.02,0.35
		C12.32,66.83,12.31,66.71,12.3,66.6z M17.8,86.81c0.09,0.18,0.18,0.35,0.27,0.53C17.98,87.16,17.89,86.99,17.8,86.81z M19.71,90.25
		c0.37,0.6,0.74,1.19,1.13,1.77C20.45,91.44,20.08,90.85,19.71,90.25z M18.7,88.51c0.17,0.3,0.34,0.59,0.51,0.88
		C19.04,89.1,18.86,88.8,18.7,88.51z M92.02,106.21c0.62-0.42,1.23-0.85,1.83-1.29C93.25,105.37,92.64,105.8,92.02,106.21z
		 M100.88,87.88c-1.69,2.59-3.64,5-5.82,7.18c-2.07,2.07-4.34,3.93-6.77,5.56c-2.27,1.52-4.68,2.83-7.21,3.92
		c-2.66,1.14-5.46,2.04-8.36,2.65c-2.97,0.63-6.04,0.96-9.19,0.96c-2.99,0-5.9-0.3-8.72-0.86c-2.72-0.54-5.35-1.34-7.86-2.35
		c-2.73-1.1-5.33-2.46-7.77-4.05c-2.59-1.69-5-3.64-7.18-5.82c-2.07-2.07-3.93-4.34-5.56-6.77c-1.52-2.27-2.83-4.68-3.92-7.21
		c-1.14-2.66-2.04-5.46-2.65-8.36c-0.62-2.97-0.96-6.04-0.96-9.2c0-2.98,0.3-5.9,0.86-8.72c0.54-2.72,1.34-5.35,2.35-7.87
		c1.1-2.73,2.46-5.33,4.05-7.77c1.69-2.59,3.64-5,5.82-7.18c2.07-2.07,4.34-3.93,6.77-5.56c2.27-1.52,4.68-2.83,7.21-3.92
		c2.66-1.14,5.46-2.04,8.36-2.65c2.97-0.63,6.04-0.96,9.2-0.96c2.99,0,5.9,0.3,8.72,0.86c2.72,0.54,5.35,1.34,7.86,2.35
		c2.73,1.1,5.33,2.46,7.77,4.05c2.59,1.7,5,3.64,7.18,5.82c2.07,2.07,3.93,4.34,5.56,6.77c1.52,2.27,2.83,4.68,3.92,7.21
		c1.14,2.66,2.04,5.46,2.65,8.36c0.62,2.97,0.96,6.04,0.96,9.19c0,2.99-0.3,5.9-0.86,8.72c-0.54,2.72-1.34,5.35-2.35,7.86
		C103.83,82.85,102.47,85.45,100.88,87.88z M114.61,58.63l0.02,0.21L114.61,58.63z M114.73,60.12c0.01,0.11,0.02,0.22,0.02,0.33
		C114.75,60.34,114.74,60.23,114.73,60.12z M114.81,61.64c0,0.12,0.01,0.24,0.01,0.37C114.82,61.88,114.81,61.76,114.81,61.64z"/>
	
		<linearGradient id="Relieve_Interior_1_" gradientUnits="userSpaceOnUse" x1="-123.0893" y1="430.6512" x2="-122.3825" y2="429.9444" gradientTransform="matrix(-64.2086 -64.2086 -64.2086 64.2086 19811.6465 -35445.8633)">
		<stop  offset="0" style="stop-color:#B2B4B6"/>
		<stop  offset="0.4408" style="stop-color:#A4AAAD"/>
		<stop  offset="1" style="stop-color:#8D999D"/>
	</linearGradient>
	<path id="Relieve_Interior" display="none" fill="url(#Relieve_Interior_1_)" d="M25.49,38.73c-1.65,2.53-3.02,5.18-4.11,7.92
		c-1.04,2.6-1.83,5.29-2.37,8.01c-0.58,2.93-0.87,5.9-0.87,8.87c0,3.14,0.33,6.27,0.98,9.35c0.61,2.9,1.5,5.75,2.67,8.51
		c1.08,2.54,2.4,5,3.97,7.35c1.63,2.44,3.51,4.75,5.66,6.9c2.27,2.27,4.72,4.24,7.31,5.93c2.52,1.65,5.18,3.02,7.92,4.11
		c2.6,1.04,5.29,1.83,8.01,2.37c2.93,0.58,5.9,0.88,8.87,0.87c3.14,0,6.27-0.33,9.35-0.98c2.9-0.61,5.75-1.5,8.51-2.67
		c2.54-1.08,5-2.4,7.35-3.97c2.44-1.63,4.75-3.51,6.9-5.66c2.27-2.27,4.24-4.72,5.93-7.31c1.65-2.52,3.02-5.18,4.11-7.92
		c1.04-2.61,1.83-5.29,2.37-8.01c0.58-2.93,0.87-5.9,0.87-8.88c0-3.13-0.33-6.27-0.98-9.35c-0.61-2.9-1.5-5.75-2.67-8.51
		c-1.08-2.54-2.4-5-3.97-7.35c-1.63-2.44-3.51-4.75-5.66-6.9c-2.27-2.27-4.72-4.24-7.31-5.93c-2.52-1.65-5.18-3.02-7.92-4.11
		c-2.6-1.04-5.29-1.83-8.01-2.37c-2.93-0.58-5.9-0.87-8.87-0.87c-3.14,0-6.27,0.33-9.35,0.98c-2.9,0.61-5.75,1.5-8.51,2.68
		c-2.54,1.08-5,2.4-7.35,3.97c-2.44,1.63-4.75,3.51-6.9,5.66C29.15,33.69,27.18,36.14,25.49,38.73z M47.11,25.17
		c2.54-1.08,5.15-1.9,7.82-2.46c2.83-0.59,5.71-0.9,8.6-0.9c2.73,0,5.47,0.27,8.16,0.8c2.5,0.49,4.97,1.22,7.36,2.18
		c2.52,1,4.96,2.26,7.28,3.78c2.38,1.55,4.63,3.36,6.71,5.45c1.97,1.97,3.7,4.1,5.2,6.34c1.44,2.16,2.65,4.42,3.65,6.76
		c1.08,2.54,1.9,5.15,2.46,7.82c0.59,2.83,0.9,5.71,0.9,8.6c0,2.73-0.27,5.47-0.8,8.16c-0.5,2.5-1.22,4.97-2.18,7.36
		c-1,2.52-2.26,4.96-3.78,7.28c-1.55,2.38-3.36,4.63-5.45,6.71c-1.97,1.97-4.1,3.71-6.34,5.2c-2.16,1.44-4.42,2.65-6.75,3.65
		c-2.54,1.08-5.15,1.9-7.82,2.46c-2.83,0.59-5.71,0.9-8.6,0.9c-2.73,0-5.47-0.27-8.16-0.8c-2.5-0.5-4.97-1.22-7.36-2.18
		c-2.52-1.01-4.96-2.26-7.28-3.78c-2.38-1.55-4.63-3.37-6.72-5.45c-1.97-1.97-3.7-4.1-5.2-6.34c-1.44-2.16-2.65-4.42-3.65-6.75
		c-1.08-2.54-1.9-5.15-2.46-7.82c-0.59-2.83-0.9-5.71-0.9-8.6c0-2.73,0.27-5.46,0.8-8.16c0.5-2.5,1.22-4.97,2.18-7.36
		c1-2.52,2.26-4.96,3.78-7.28c1.55-2.38,3.36-4.63,5.45-6.71c1.97-1.97,4.1-3.71,6.34-5.2C42.51,27.38,44.78,26.16,47.11,25.17z"/>
	<g id="Rect_Blancos">
		<path fill="#F6F6F6" d="M100.62,38.77l-3,2c1.39,2.08,2.6,4.3,3.6,6.63l3.31-1.42C103.45,43.44,102.14,41.03,100.62,38.77z"/>
		<path fill="#F6F6F6" d="M92.51,92.51l2.55,2.55c2.18-2.18,4.13-4.59,5.82-7.18l-3.02-1.97C96.3,88.29,94.51,90.51,92.51,92.51z"/>
		<path fill="#F6F6F6" d="M25.47,48.28l-3.35-1.34c-1.01,2.52-1.81,5.15-2.35,7.87l3.54,0.71C23.81,53.01,24.54,50.59,25.47,48.28z"
			/>
		<path fill="#F6F6F6" d="M22.52,63.53h-3.61c0,3.15,0.33,6.23,0.96,9.2l3.53-0.74C22.82,69.25,22.52,66.42,22.52,63.53z"/>
		<path fill="#F6F6F6" d="M22.51,81.08c1.09,2.53,2.4,4.94,3.92,7.21l3-2c-1.39-2.08-2.6-4.3-3.6-6.63L22.51,81.08z"/>
		<path fill="#F6F6F6" d="M31.99,95.06c2.18,2.18,4.59,4.13,7.18,5.82l1.97-3.02c-2.38-1.56-4.59-3.35-6.6-5.35L31.99,95.06z"/>
		<path fill="#F6F6F6" d="M63.53,22.52v-3.61c-3.15,0-6.23,0.33-9.2,0.96l0.74,3.53C57.8,22.82,60.63,22.52,63.53,22.52z"/>
		<path fill="#F6F6F6" d="M47.39,25.83l-1.42-3.31c-2.53,1.09-4.94,2.4-7.21,3.92l2,3C42.85,28.04,45.07,26.83,47.39,25.83z"/>
		<path fill="#F6F6F6" d="M34.54,34.54l-2.55-2.55c-2.18,2.18-4.13,4.59-5.82,7.18l3.02,1.97C30.75,38.76,32.54,36.54,34.54,34.54z"
			/>
		<path fill="#F6F6F6" d="M104.54,63.53h3.61c0-3.15-0.33-6.23-0.96-9.19l-3.53,0.74C104.23,57.8,104.54,60.63,104.54,63.53z"/>
		<path fill="#F6F6F6" d="M95.06,31.99c-2.18-2.18-4.59-4.13-7.18-5.82l-1.97,3.02c2.38,1.56,4.59,3.35,6.6,5.35L95.06,31.99z"/>
		<path fill="#F6F6F6" d="M101.59,78.77l3.35,1.34c1.01-2.52,1.81-5.14,2.35-7.86l-3.54-0.71
			C103.25,74.04,102.52,76.46,101.59,78.77z"/>
		<path fill="#F6F6F6" d="M46.94,104.93c2.52,1.01,5.15,1.81,7.86,2.35l0.71-3.54c-2.5-0.5-4.91-1.23-7.23-2.16L46.94,104.93z"/>
		<path fill="#F6F6F6" d="M72.25,19.77l-0.71,3.54c2.5,0.5,4.91,1.23,7.23,2.16l1.34-3.35C77.6,21.11,74.97,20.31,72.25,19.77z"/>
		<path fill="#F6F6F6" d="M63.53,104.54v3.61c3.15,0,6.23-0.33,9.19-0.96l-0.74-3.53C69.25,104.23,66.42,104.54,63.53,104.54z"/>
		<path fill="#F6F6F6" d="M79.66,101.22l1.42,3.31c2.53-1.09,4.94-2.4,7.21-3.92l-2-3C84.2,99.02,81.99,100.22,79.66,101.22z"/>
	</g>
	<g id="Rect_Color" display="none">
		<linearGradient id="SVGID_1_" gradientUnits="userSpaceOnUse" x1="96.5659" y1="31.9921" x2="96.5659" y2="40.7656">
			<stop  offset="0" style="stop-color:#86898B"/>
			<stop  offset="1" style="stop-color:#86898B"/>
		</linearGradient>
		<path display="inline" fill="url(#SVGID_1_)" d="M95.06,31.99l-2.55,2.55c1.9,1.9,3.61,3.99,5.11,6.22l3-2
			C98.99,36.33,97.13,34.06,95.06,31.99z"/>
		<linearGradient id="SVGID_2_" gradientUnits="userSpaceOnUse" x1="104.2053" y1="45.9746" x2="104.2053" y2="55.0742">
			<stop  offset="0" style="stop-color:#86898B"/>
			<stop  offset="1" style="stop-color:#86898B"/>
		</linearGradient>
		<path display="inline" fill="url(#SVGID_2_)" d="M107.19,54.33c-0.61-2.9-1.5-5.7-2.65-8.36l-3.31,1.42
			c1.05,2.45,1.87,5.02,2.43,7.68L107.19,54.33z"/>
		<linearGradient id="SVGID_3_" gradientUnits="userSpaceOnUse" x1="22.8479" y1="71.9785" x2="22.8479" y2="81.0781">
			<stop  offset="0" style="stop-color:#86898B"/>
			<stop  offset="1" style="stop-color:#86898B"/>
		</linearGradient>
		<path display="inline" fill="url(#SVGID_3_)" d="M19.87,72.72c0.61,2.9,1.5,5.7,2.65,8.36l3.31-1.42
			c-1.05-2.45-1.87-5.02-2.43-7.68L19.87,72.72z"/>
		<linearGradient id="SVGID_4_" gradientUnits="userSpaceOnUse" x1="21.1094" y1="54.8027" x2="21.1094" y2="63.5254">
			<stop  offset="0" style="stop-color:#86898B"/>
			<stop  offset="1" style="stop-color:#86898B"/>
		</linearGradient>
		<path display="inline" fill="url(#SVGID_4_)" d="M23.31,55.51l-3.54-0.71c-0.56,2.82-0.86,5.74-0.86,8.72h3.61
			C22.52,60.78,22.79,58.1,23.31,55.51z"/>
		<linearGradient id="SVGID_5_" gradientUnits="userSpaceOnUse" x1="30.4871" y1="86.2851" x2="30.4871" y2="95.0605">
			<stop  offset="0" style="stop-color:#86898B"/>
			<stop  offset="1" style="stop-color:#86898B"/>
		</linearGradient>
		<path display="inline" fill="url(#SVGID_5_)" d="M26.43,88.29c1.63,2.44,3.49,4.71,5.56,6.77l2.55-2.55
			c-1.9-1.9-3.61-3.99-5.11-6.23L26.43,88.29z"/>
		<linearGradient id="SVGID_6_" gradientUnits="userSpaceOnUse" x1="43.7249" y1="97.8593" x2="43.7249" y2="104.9316">
			<stop  offset="0" style="stop-color:#86898B"/>
			<stop  offset="1" style="stop-color:#86898B"/>
		</linearGradient>
		<path display="inline" fill="url(#SVGID_6_)" d="M39.17,100.88c2.44,1.59,5.04,2.95,7.77,4.05l1.34-3.35
			c-2.51-1.01-4.9-2.26-7.14-3.73L39.17,100.88z"/>
		<linearGradient id="SVGID_7_" gradientUnits="userSpaceOnUse" x1="25.6565" y1="39.1699" x2="25.6565" y2="48.2793">
			<stop  offset="0" style="stop-color:#86898B"/>
			<stop  offset="1" style="stop-color:#86898B"/>
		</linearGradient>
		<path display="inline" fill="url(#SVGID_7_)" d="M29.19,41.14l-3.02-1.97c-1.59,2.44-2.95,5.04-4.05,7.77l3.35,1.34
			C26.48,45.77,27.73,43.38,29.19,41.14z"/>
		<linearGradient id="SVGID_8_" gradientUnits="userSpaceOnUse" x1="50.5241" y1="19.8671" x2="50.5241" y2="25.8281">
			<stop  offset="0" style="stop-color:#86898B"/>
			<stop  offset="1" style="stop-color:#86898B"/>
		</linearGradient>
		<path display="inline" fill="url(#SVGID_8_)" d="M55.07,23.4l-0.74-3.53c-2.9,0.61-5.69,1.5-8.36,2.65l1.42,3.31
			C49.84,24.78,52.41,23.96,55.07,23.4z"/>
		<linearGradient id="SVGID_9_" gradientUnits="userSpaceOnUse" x1="36.3792" y1="26.4336" x2="36.3792" y2="34.541">
			<stop  offset="0" style="stop-color:#86898B"/>
			<stop  offset="1" style="stop-color:#86898B"/>
		</linearGradient>
		<path display="inline" fill="url(#SVGID_9_)" d="M40.77,29.43l-2-3c-2.44,1.63-4.71,3.49-6.77,5.56l2.55,2.55
			C36.44,32.64,38.53,30.93,40.77,29.43z"/>
		<linearGradient id="SVGID_10_" gradientUnits="userSpaceOnUse" x1="105.9439" y1="63.5254" x2="105.9439" y2="72.25">
			<stop  offset="0" style="stop-color:#86898B"/>
			<stop  offset="1" style="stop-color:#86898B"/>
		</linearGradient>
		<path display="inline" fill="url(#SVGID_10_)" d="M104.54,63.53c0,2.74-0.28,5.42-0.79,8.02l3.54,0.71
			c0.56-2.82,0.86-5.74,0.86-8.72H104.54z"/>
		<linearGradient id="SVGID_11_" gradientUnits="userSpaceOnUse" x1="83.3281" y1="22.1191" x2="83.3281" y2="29.1914">
			<stop  offset="0" style="stop-color:#86898B"/>
			<stop  offset="1" style="stop-color:#86898B"/>
		</linearGradient>
		<path display="inline" fill="url(#SVGID_11_)" d="M80.11,22.12l-1.34,3.35c2.51,1.01,4.9,2.26,7.14,3.72l1.97-3.02
			C85.45,24.58,82.85,23.22,80.11,22.12z"/>
		<linearGradient id="SVGID_12_" gradientUnits="userSpaceOnUse" x1="101.3965" y1="78.7734" x2="101.3965" y2="87.8828">
			<stop  offset="0" style="stop-color:#86898B"/>
			<stop  offset="1" style="stop-color:#86898B"/>
		</linearGradient>
		<path display="inline" fill="url(#SVGID_12_)" d="M97.86,85.91l3.02,1.97c1.59-2.44,2.95-5.04,4.05-7.77l-3.35-1.34
			C100.58,81.29,99.33,83.68,97.86,85.91z"/>
		<linearGradient id="SVGID_13_" gradientUnits="userSpaceOnUse" x1="67.8884" y1="18.9101" x2="67.8884" y2="23.3086">
			<stop  offset="0" style="stop-color:#86898B"/>
			<stop  offset="1" style="stop-color:#86898B"/>
		</linearGradient>
		<path display="inline" fill="url(#SVGID_13_)" d="M63.53,18.91v3.61c2.74,0,5.42,0.28,8.02,0.79l0.71-3.54
			C69.43,19.21,66.51,18.91,63.53,18.91z"/>
		<linearGradient id="SVGID_14_" gradientUnits="userSpaceOnUse" x1="59.165" y1="103.7441" x2="59.165" y2="108.1425">
			<stop  offset="0" style="stop-color:#86898B"/>
			<stop  offset="1" style="stop-color:#86898B"/>
		</linearGradient>
		<path display="inline" fill="url(#SVGID_14_)" d="M54.8,107.28c2.82,0.56,5.74,0.86,8.72,0.86v-3.61c-2.74,0-5.42-0.28-8.02-0.79
			L54.8,107.28z"/>
		<linearGradient id="SVGID_15_" gradientUnits="userSpaceOnUse" x1="76.5281" y1="101.2246" x2="76.5281" y2="107.1855">
			<stop  offset="0" style="stop-color:#86898B"/>
			<stop  offset="1" style="stop-color:#86898B"/>
		</linearGradient>
		<path display="inline" fill="url(#SVGID_15_)" d="M71.98,103.66l0.74,3.53c2.9-0.61,5.69-1.5,8.36-2.65l-1.42-3.31
			C77.21,102.28,74.64,103.1,71.98,103.66z"/>
		<linearGradient id="SVGID_16_" gradientUnits="userSpaceOnUse" x1="90.6733" y1="92.5117" x2="90.6733" y2="100.6191">
			<stop  offset="0" style="stop-color:#86898B"/>
			<stop  offset="1" style="stop-color:#86898B"/>
		</linearGradient>
		<path display="inline" fill="url(#SVGID_16_)" d="M86.29,97.62l2,3c2.44-1.63,4.71-3.49,6.77-5.56l-2.55-2.55
			C90.61,94.41,88.53,96.12,86.29,97.62z"/>
	</g>
	<g id="Relieve_Exterior" display="none">
		<linearGradient id="SVGID_17_" gradientUnits="userSpaceOnUse" x1="5.585" y1="77.6698" x2="5.585" y2="101.6862">
			<stop  offset="0" style="stop-color:#C4C7C9"/>
			<stop  offset="0.6347" style="stop-color:#C2C5C7"/>
			<stop  offset="0.8631" style="stop-color:#BBBFC1"/>
			<stop  offset="1" style="stop-color:#B2B6B8"/>
		</linearGradient>
		<path display="inline" fill="url(#SVGID_17_)" d="M11.17,29.2L10.4,28.7l-0.09,0.13C8.04,32.3,6.11,36,4.54,39.9
			c-1.44,3.59-2.56,7.33-3.33,11.21C0.42,55.12,0,59.28,0,63.53c0,2.68,0.17,5.31,0.49,7.9l0.92-0.12
			c-0.32-2.55-0.49-5.15-0.49-7.79c0-4.19,0.42-8.28,1.2-12.24c0.76-3.82,1.86-7.51,3.28-11.04c1.54-3.84,3.45-7.49,5.68-10.91
			L11.17,29.2z"/>
		<linearGradient id="SVGID_18_" gradientUnits="userSpaceOnUse" x1="19.0349" y1="122.5387" x2="19.0349" y2="138.3905">
			<stop  offset="0" style="stop-color:#C4C7C9"/>
			<stop  offset="0.6347" style="stop-color:#C2C5C7"/>
			<stop  offset="0.8631" style="stop-color:#BBBFC1"/>
			<stop  offset="1" style="stop-color:#B2B6B8"/>
		</linearGradient>
		<path display="inline" fill="url(#SVGID_18_)" d="M19.26,107.79c-2.9-2.9-5.52-6.09-7.8-9.51c-1.71-2.56-3.23-5.26-4.56-8.07
			l-0.84,0.39c1.35,2.85,2.89,5.59,4.63,8.19c2.32,3.47,4.98,6.71,7.92,9.65c3.1,3.1,6.53,5.88,10.22,8.29
			c0.89,0.58,1.8,1.14,2.72,1.68l0.47-0.8c-0.91-0.53-1.8-1.08-2.68-1.65C25.7,113.59,22.32,110.85,19.26,107.79z"/>
		<linearGradient id="SVGID_19_" gradientUnits="userSpaceOnUse" x1="76.687" y1="129.1929" x2="76.687" y2="137.4301">
			<stop  offset="0" style="stop-color:#C4C7C9"/>
			<stop  offset="0.6347" style="stop-color:#C2C5C7"/>
			<stop  offset="0.8631" style="stop-color:#BBBFC1"/>
			<stop  offset="1" style="stop-color:#B2B6B8"/>
		</linearGradient>
		<path display="inline" fill="url(#SVGID_19_)" d="M98.29,115.6c-3.18,2.13-6.57,3.97-10.12,5.5c-3.74,1.6-7.66,2.85-11.73,3.7
			c-4.16,0.87-8.48,1.33-12.9,1.33c-4.19,0-8.28-0.42-12.24-1.2c-0.31-0.06-0.62-0.13-0.92-0.19l-0.19,0.9
			c0.31,0.07,0.62,0.14,0.94,0.2c4.02,0.8,8.17,1.22,12.42,1.22c4.49,0,8.87-0.47,13.09-1.35c4.13-0.87,8.11-2.13,11.9-3.76
			c3.61-1.55,7.05-3.42,10.27-5.58c1.52-1.02,2.98-2.11,4.41-3.25l-0.58-0.72C101.23,113.52,99.78,114.59,98.29,115.6z"/>
		<linearGradient id="SVGID_20_" gradientUnits="userSpaceOnUse" x1="121.4682" y1="104.5956" x2="121.4682" y2="128.612">
			<stop  offset="0" style="stop-color:#C4C7C9"/>
			<stop  offset="0.6347" style="stop-color:#C2C5C7"/>
			<stop  offset="0.8631" style="stop-color:#BBBFC1"/>
			<stop  offset="1" style="stop-color:#B2B6B8"/>
		</linearGradient>
		<path display="inline" fill="url(#SVGID_20_)" d="M126.56,55.62l-0.92,0.12c0.32,2.55,0.49,5.15,0.49,7.79
			c0,4.19-0.42,8.28-1.2,12.24c-0.76,3.82-1.86,7.51-3.28,11.04c-1.54,3.84-3.45,7.49-5.68,10.91l-0.09,0.13l0.77,0.51l0.09-0.13
			c2.27-3.47,4.21-7.18,5.77-11.07c1.44-3.58,2.56-7.33,3.33-11.21c0.8-4.02,1.22-8.17,1.22-12.42
			C127.05,60.85,126.88,58.21,126.56,55.62z"/>
		<linearGradient id="SVGID_21_" gradientUnits="userSpaceOnUse" x1="108.0183" y1="40.9567" x2="108.0183" y2="56.8085">
			<stop  offset="0" style="stop-color:#C4C7C9"/>
			<stop  offset="0.6347" style="stop-color:#C2C5C7"/>
			<stop  offset="0.8631" style="stop-color:#BBBFC1"/>
			<stop  offset="1" style="stop-color:#B2B6B8"/>
		</linearGradient>
		<path display="inline" fill="url(#SVGID_21_)" d="M120.99,36.44c-1.35-2.85-2.89-5.59-4.63-8.19c-2.32-3.47-4.98-6.71-7.92-9.65
			c-3.1-3.1-6.53-5.88-10.22-8.29c-0.89-0.58-1.8-1.14-2.72-1.68l-0.47,0.8c0.91,0.53,1.8,1.08,2.68,1.65
			c3.64,2.38,7.01,5.12,10.07,8.18c2.9,2.9,5.52,6.09,7.8,9.51c1.71,2.56,3.23,5.26,4.56,8.07L120.99,36.44z"/>
		<linearGradient id="SVGID_22_" gradientUnits="userSpaceOnUse" x1="50.3659" y1="16.7964" x2="50.3659" y2="25.0335">
			<stop  offset="0" style="stop-color:#C4C7C9"/>
			<stop  offset="0.6347" style="stop-color:#C2C5C7"/>
			<stop  offset="0.8631" style="stop-color:#BBBFC1"/>
			<stop  offset="1" style="stop-color:#B2B6B8"/>
		</linearGradient>
		<path display="inline" fill="url(#SVGID_22_)" d="M63.53,0.92c4.19,0,8.28,0.42,12.24,1.2c0.31,0.06,0.62,0.13,0.92,0.2l0.19-0.9
			c-0.31-0.07-0.62-0.13-0.94-0.2C71.93,0.42,67.78,0,63.53,0c-4.49,0-8.87,0.47-13.1,1.35c-4.13,0.87-8.11,2.13-11.9,3.76
			c-3.61,1.54-7.05,3.42-10.27,5.58c-1.52,1.02-2.98,2.11-4.41,3.25l0.58,0.72c1.4-1.12,2.85-2.2,4.34-3.2
			c3.18-2.13,6.57-3.97,10.12-5.5c3.74-1.6,7.66-2.85,11.73-3.7C54.79,1.39,59.1,0.92,63.53,0.92z"/>
	</g>
	<g id="Detalles">
		<path fill="#FFFFFF" d="M13.3,74.11c-0.29-1.38-0.52-2.78-0.7-4.2L0.49,71.43c0.22,1.75,0.5,3.48,0.86,5.19
			c0.87,4.13,2.13,8.11,3.76,11.9c0.3,0.7,0.62,1.39,0.95,2.08l11.04-5.2c-0.26-0.56-0.52-1.11-0.77-1.68
			C15.02,80.66,14,77.44,13.3,74.11z"/>
		<path fill="#FFFFFF" d="M99.82,99.82c-1.34,1.34-2.76,2.59-4.23,3.77l7.62,9.53c1.83-1.47,3.58-3.02,5.24-4.67
			c3.07-3.07,5.82-6.45,8.21-10.09l-10.21-6.69C104.52,94.6,102.29,97.34,99.82,99.82z"/>
		<path fill="#FFFFFF" d="M37.69,107.87l-6.15,10.55c2.67,1.56,5.46,2.93,8.36,4.09c3.3,1.32,6.73,2.37,10.27,3.13l2.57-11.94
			c-2.86-0.61-5.64-1.45-8.3-2.52C42.1,110.24,39.84,109.13,37.69,107.87z"/>
		<path fill="#FFFFFF" d="M113.75,52.95c0.29,1.38,0.52,2.78,0.7,4.2l12.11-1.52c-0.22-1.75-0.5-3.48-0.86-5.19
			c-0.87-4.13-2.13-8.11-3.76-11.9c-0.3-0.7-0.63-1.39-0.95-2.08l-11.04,5.2c0.26,0.56,0.52,1.12,0.77,1.68
			C112.03,46.39,113.05,49.61,113.75,52.95z"/>
		<path fill="#FFFFFF" d="M76.89,1.41l-2.57,11.94c2.86,0.61,5.64,1.45,8.3,2.52c2.34,0.94,4.59,2.05,6.75,3.3l6.15-10.55
			c-2.67-1.56-5.46-2.93-8.35-4.09C83.86,3.22,80.43,2.17,76.89,1.41z"/>
		<path fill="#FFFFFF" d="M18.61,18.61c-3.07,3.07-5.82,6.45-8.21,10.09l10.21,6.69c1.93-2.94,4.15-5.68,6.63-8.15
			c1.34-1.34,2.76-2.59,4.23-3.77l-7.62-9.53C22.02,15.4,20.26,16.95,18.61,18.61z"/>
		<path fill="#FFFFFF" d="M77.03,114.48c-1.43,0-2.59,1.16-2.59,2.59c0,1.43,1.16,2.59,2.59,2.59c1.43,0,2.59-1.16,2.59-2.59
			C79.62,115.64,78.46,114.48,77.03,114.48z"/>
		<path fill="#FFFFFF" d="M50.77,7.4c-1.43,0-2.59,1.16-2.59,2.59s1.16,2.59,2.59,2.59c1.43,0,2.59-1.16,2.59-2.59
			S52.2,7.4,50.77,7.4z"/>
		<path fill="#FFFFFF" d="M9.34,56.41c1.43,0,2.59-1.16,2.59-2.59c0-1.43-1.16-2.59-2.59-2.59c-1.43,0-2.59,1.16-2.59,2.59
			C6.75,55.25,7.91,56.41,9.34,56.41z"/>
		<path fill="#FFFFFF" d="M23.77,99.13c-1.43,0-2.59,1.16-2.59,2.59c0,1.43,1.16,2.59,2.59,2.59c1.43,0,2.59-1.16,2.59-2.59
			C26.35,100.29,25.19,99.13,23.77,99.13z"/>
		<path fill="#FFFFFF" d="M116.97,73.61c-1.43,0-2.59,1.16-2.59,2.59c0,1.43,1.16,2.59,2.59,2.59c1.43,0,2.59-1.16,2.59-2.59
			C119.56,74.77,118.4,73.61,116.97,73.61z"/>
		<path fill="#FFFFFF" d="M104.21,29.4c1.43,0,2.59-1.16,2.59-2.59c0-1.43-1.16-2.59-2.59-2.59c-1.43,0-2.59,1.16-2.59,2.59
			C101.62,28.25,102.78,29.4,104.21,29.4z"/>
	</g>
	<g id="Relieve_Detalles">
		<linearGradient id="SVGID_23_" gradientUnits="userSpaceOnUse" x1="-20.8224" y1="80.9618" x2="9.4775" y2="80.9618">
			<stop  offset="0" style="stop-color:#A0A3A5"/>
			<stop  offset="0.2902" style="stop-color:#C6C8C9"/>
			<stop  offset="0.5813" style="stop-color:#E5E6E6"/>
			<stop  offset="0.8284" style="stop-color:#F8F8F9"/>
			<stop  offset="1" style="stop-color:#FFFFFF"/>
		</linearGradient>
		<path fill="url(#SVGID_23_)" d="M2.26,76.43c-0.35-1.68-0.63-3.39-0.85-5.12l-0.92,0.12c0.22,1.75,0.5,3.48,0.86,5.19
			c0.87,4.13,2.13,8.11,3.76,11.9c0.3,0.7,0.62,1.39,0.95,2.08l0.84-0.39c-0.32-0.68-0.64-1.36-0.94-2.05
			C4.36,84.42,3.11,80.5,2.26,76.43z"/>
		<linearGradient id="SVGID_24_" gradientUnits="userSpaceOnUse" x1="55.9617" y1="105.4833" x2="122.3032" y2="105.4833">
			<stop  offset="0" style="stop-color:#A0A3A5"/>
			<stop  offset="0.2902" style="stop-color:#C6C8C9"/>
			<stop  offset="0.5813" style="stop-color:#E5E6E6"/>
			<stop  offset="0.8284" style="stop-color:#F8F8F9"/>
			<stop  offset="1" style="stop-color:#FFFFFF"/>
		</linearGradient>
		<path fill="url(#SVGID_24_)" d="M107.79,107.79c-1.63,1.63-3.36,3.16-5.16,4.6l0.58,0.72c1.83-1.47,3.58-3.02,5.24-4.67
			c3.07-3.07,5.82-6.45,8.21-10.09l-0.77-0.51C113.53,101.44,110.82,104.77,107.79,107.79z"/>
		<linearGradient id="SVGID_25_" gradientUnits="userSpaceOnUse" x1="-31.07" y1="121.6289" x2="57.9366" y2="121.6289">
			<stop  offset="0" style="stop-color:#A0A3A5"/>
			<stop  offset="0.2902" style="stop-color:#C6C8C9"/>
			<stop  offset="0.5813" style="stop-color:#E5E6E6"/>
			<stop  offset="0.8284" style="stop-color:#F8F8F9"/>
			<stop  offset="1" style="stop-color:#FFFFFF"/>
		</linearGradient>
		<path fill="url(#SVGID_25_)" d="M32.01,117.62l-0.47,0.8c2.67,1.56,5.46,2.93,8.36,4.09c3.3,1.32,6.73,2.37,10.27,3.13l0.19-0.9
			c-3.49-0.75-6.87-1.78-10.12-3.08C37.39,120.51,34.64,119.16,32.01,117.62z"/>
		<linearGradient id="SVGID_26_" gradientUnits="userSpaceOnUse" x1="98.8423" y1="46.0907" x2="129.1399" y2="46.0907">
			<stop  offset="0" style="stop-color:#A0A3A5"/>
			<stop  offset="0.2902" style="stop-color:#C6C8C9"/>
			<stop  offset="0.5813" style="stop-color:#E5E6E6"/>
			<stop  offset="0.8284" style="stop-color:#F8F8F9"/>
			<stop  offset="1" style="stop-color:#FFFFFF"/>
		</linearGradient>
		<path fill="url(#SVGID_26_)" d="M125.7,50.43c-0.87-4.13-2.13-8.11-3.76-11.9c-0.3-0.7-0.63-1.39-0.95-2.08l-0.84,0.39
			c0.32,0.68,0.64,1.36,0.94,2.05c1.6,3.74,2.85,7.66,3.7,11.73c0.35,1.68,0.63,3.39,0.85,5.12l0.92-0.12
			C126.34,53.87,126.06,52.14,125.7,50.43z"/>
		<linearGradient id="SVGID_27_" gradientUnits="userSpaceOnUse" x1="14.0804" y1="5.4228" x2="103.087" y2="5.4228">
			<stop  offset="0" style="stop-color:#A0A3A5"/>
			<stop  offset="0.2902" style="stop-color:#C6C8C9"/>
			<stop  offset="0.5813" style="stop-color:#E5E6E6"/>
			<stop  offset="0.8284" style="stop-color:#F8F8F9"/>
			<stop  offset="1" style="stop-color:#FFFFFF"/>
		</linearGradient>
		<path fill="url(#SVGID_27_)" d="M76.89,1.41l-0.19,0.9c3.49,0.75,6.87,1.78,10.12,3.08c2.86,1.15,5.6,2.5,8.23,4.03l0.47-0.8
			c-2.67-1.56-5.46-2.93-8.35-4.09C83.86,3.22,80.43,2.17,76.89,1.41z"/>
		<linearGradient id="SVGID_28_" gradientUnits="userSpaceOnUse" x1="-36.2677" y1="21.5683" x2="30.0694" y2="21.5683">
			<stop  offset="0" style="stop-color:#A0A3A5"/>
			<stop  offset="0.2902" style="stop-color:#C6C8C9"/>
			<stop  offset="0.5813" style="stop-color:#E5E6E6"/>
			<stop  offset="0.8284" style="stop-color:#F8F8F9"/>
			<stop  offset="1" style="stop-color:#FFFFFF"/>
		</linearGradient>
		<path fill="url(#SVGID_28_)" d="M18.61,18.61c-3.07,3.07-5.82,6.45-8.21,10.09l0.77,0.51c2.36-3.59,5.07-6.92,8.09-9.94
			c1.63-1.63,3.36-3.16,5.16-4.6l-0.58-0.72C22.02,15.4,20.26,16.95,18.61,18.61z"/>
	</g>
	
		<linearGradient id="Relieve_Centro_1_" gradientUnits="userSpaceOnUse" x1="-126.4203" y1="434.6856" x2="-125.7135" y2="433.9789" gradientTransform="matrix(57.9976 57.9976 57.9976 -57.9976 -17815.1211 32565.1738)">
		<stop  offset="0" style="stop-color:#A4ABAE"/>
		<stop  offset="0.6066" style="stop-color:#B1B8BC"/>
		<stop  offset="1" style="stop-color:#BCC3C7"/>
	</linearGradient>
	<path id="Relieve_Centro" display="none" fill="url(#Relieve_Centro_1_)" d="M97.88,85.93c1.49-2.28,2.73-4.68,3.71-7.15
		c0.94-2.35,1.65-4.78,2.14-7.23c0.52-2.64,0.79-5.33,0.79-8.02c0-2.83-0.3-5.66-0.88-8.45c-0.55-2.62-1.35-5.19-2.42-7.68
		c-0.98-2.29-2.17-4.52-3.58-6.64c-0.33-0.49-0.67-0.98-1.03-1.46c-0.11-0.15-0.22-0.29-0.33-0.44c-0.26-0.34-0.52-0.69-0.8-1.02
		c-0.12-0.15-0.24-0.31-0.37-0.46c-0.35-0.42-0.7-0.83-1.07-1.24l-0.12-0.14c-0.45-0.5-0.91-0.99-1.39-1.46
		c-0.51-0.51-1.02-1-1.55-1.47l0,0l0,0l0,0l-0.13-0.11c-0.44-0.39-0.88-0.77-1.33-1.14c-0.16-0.13-0.32-0.26-0.48-0.39
		c-0.36-0.28-0.72-0.56-1.08-0.83c-0.16-0.12-0.31-0.23-0.47-0.35c-0.51-0.37-1.03-0.73-1.55-1.07c-2.28-1.49-4.68-2.72-7.15-3.71
		c-2.35-0.94-4.77-1.65-7.23-2.14c-2.64-0.52-5.33-0.79-8.02-0.79c-2.83,0-5.66,0.3-8.45,0.88c-2.62,0.55-5.19,1.35-7.68,2.42
		c-2.29,0.98-4.52,2.17-6.64,3.58c-2.2,1.47-4.29,3.17-6.23,5.11c-2.05,2.05-3.83,4.26-5.35,6.6c-1.49,2.28-2.72,4.68-3.71,7.15
		c-0.94,2.35-1.65,4.78-2.14,7.23c-0.52,2.64-0.79,5.33-0.79,8.01c0,2.83,0.3,5.66,0.88,8.45c0.55,2.62,1.35,5.19,2.42,7.68
		c0.98,2.29,2.17,4.52,3.58,6.64c0.33,0.49,0.67,0.98,1.03,1.46c0.11,0.15,0.22,0.29,0.33,0.44c0.26,0.34,0.52,0.69,0.8,1.02
		c0.12,0.15,0.24,0.3,0.37,0.46c0.35,0.42,0.7,0.83,1.07,1.24C33.5,91.46,34,92,34.53,92.53c2.05,2.05,4.26,3.83,6.6,5.35
		c2.28,1.49,4.68,2.72,7.15,3.71c2.35,0.94,4.77,1.65,7.23,2.14c2.64,0.52,5.33,0.79,8.02,0.79c2.83,0,5.66-0.3,8.45-0.88
		c2.62-0.55,5.19-1.35,7.68-2.42c2.29-0.98,4.52-2.17,6.64-3.58c2.2-1.47,4.29-3.17,6.23-5.11C94.57,90.48,96.36,88.26,97.88,85.93z
		 M96.91,39.73c-0.07-0.1-0.14-0.21-0.22-0.31C96.77,39.53,96.84,39.63,96.91,39.73z M96.12,38.66c-0.19-0.25-0.38-0.49-0.57-0.74
		C95.75,38.17,95.94,38.41,96.12,38.66z M95.07,37.33c-0.33-0.4-0.67-0.79-1.02-1.18C94.4,36.54,94.74,36.93,95.07,37.33z
		 M90.83,32.93c-0.42-0.37-0.84-0.73-1.27-1.08C89.99,32.2,90.42,32.56,90.83,32.93z M88.93,31.35c-0.26-0.2-0.52-0.4-0.78-0.6
		C88.41,30.94,88.67,31.14,88.93,31.35z M87.34,30.15c-0.1-0.07-0.21-0.14-0.31-0.22C87.13,30,87.24,30.07,87.34,30.15z
		 M30.14,87.32c0.07,0.1,0.14,0.21,0.22,0.31C30.28,87.53,30.21,87.42,30.14,87.32z M30.93,88.39c0.19,0.25,0.38,0.49,0.57,0.74
		C31.31,88.88,31.12,88.64,30.93,88.39z M31.98,89.72c0.33,0.4,0.67,0.79,1.02,1.19C32.65,90.52,32.31,90.12,31.98,89.72z"/>
	<path id="Centro" display="none" fill="#B1B7BA" d="M102.8,55.26c-0.55-2.61-1.35-5.12-2.38-7.52c-0.98-2.28-2.16-4.45-3.53-6.48
		c-1.47-2.19-3.14-4.23-5-6.09c-1.96-1.96-4.13-3.71-6.46-5.23c-2.19-1.43-4.53-2.66-6.99-3.65c-2.27-0.91-4.63-1.63-7.07-2.11
		c-0.57-0.11-1.14-0.21-1.72-0.3c-0.18-0.03-0.36-0.05-0.54-0.08c-0.42-0.06-0.84-0.11-1.26-0.16c-0.19-0.02-0.38-0.04-0.57-0.06
		c-0.53-0.05-1.06-0.09-1.6-0.12l-0.18-0.01c-0.65-0.03-1.31-0.05-1.98-0.05c-0.7,0-1.4,0.02-2.09,0.05h0h0h0l-0.17,0.01
		c-0.57,0.03-1.14,0.08-1.71,0.13c-0.2,0.02-0.4,0.04-0.6,0.07c-0.44,0.05-0.88,0.11-1.32,0.18c-0.19,0.03-0.38,0.05-0.57,0.08
		c-0.61,0.1-1.21,0.21-1.81,0.33c-2.61,0.55-5.12,1.35-7.52,2.38c-2.28,0.98-4.45,2.16-6.48,3.53c-2.19,1.47-4.23,3.14-6.09,5
		c-1.96,1.96-3.71,4.13-5.23,6.45c-1.43,2.19-2.66,4.53-3.65,6.99c-0.91,2.27-1.63,4.63-2.11,7.07c-0.51,2.54-0.78,5.16-0.78,7.85
		c0,2.84,0.3,5.6,0.86,8.27c0.55,2.61,1.35,5.12,2.38,7.52c0.98,2.28,2.16,4.45,3.53,6.48c1.47,2.19,3.14,4.23,5,6.09
		c1.96,1.96,4.13,3.71,6.46,5.23c2.19,1.43,4.53,2.66,6.99,3.64c2.27,0.91,4.63,1.63,7.07,2.11c0.57,0.11,1.14,0.21,1.72,0.3
		c0.18,0.03,0.36,0.05,0.54,0.08c0.42,0.06,0.84,0.11,1.26,0.16c0.19,0.02,0.38,0.04,0.57,0.06c0.53,0.05,1.06,0.09,1.6,0.12
		c0.71,0.04,1.43,0.06,2.16,0.06c2.83,0,5.6-0.3,8.27-0.86c2.61-0.55,5.12-1.35,7.52-2.38c2.28-0.98,4.45-2.16,6.48-3.53
		c2.19-1.47,4.23-3.14,6.09-5c1.96-1.96,3.71-4.13,5.23-6.46c1.43-2.19,2.66-4.53,3.65-6.99c0.91-2.27,1.63-4.63,2.11-7.07
		c0.5-2.54,0.78-5.16,0.78-7.85C103.66,60.69,103.36,57.93,102.8,55.26z M70.16,23.96c-0.12-0.02-0.24-0.04-0.36-0.06
		C69.92,23.91,70.04,23.94,70.16,23.96z M68.88,23.76c-0.3-0.04-0.6-0.08-0.9-0.11C68.27,23.69,68.58,23.72,68.88,23.76z
		 M67.23,23.57c-0.5-0.05-1.01-0.09-1.52-0.11C66.22,23.49,66.72,23.52,67.23,23.57z M58.84,23.68c-0.32,0.04-0.64,0.08-0.95,0.13
		C58.2,23.76,58.52,23.72,58.84,23.68z M56.91,23.95c-0.12,0.02-0.25,0.05-0.37,0.07C56.66,24,56.79,23.97,56.91,23.95z
		 M56.89,103.09c0.12,0.02,0.24,0.04,0.37,0.06C57.13,103.14,57.01,103.11,56.89,103.09z M58.18,103.29c0.3,0.04,0.6,0.08,0.91,0.11
		C58.78,103.37,58.48,103.33,58.18,103.29z M59.83,103.48c0.51,0.05,1.01,0.09,1.52,0.12C60.84,103.57,60.33,103.53,59.83,103.48z"
		/>
</g>
</svg>
